<?xml version="1.0" encoding="UTF-8"?>
<svg version="1.1" xmlns="http://www.w3.org/2000/svg" width="181" height="137">
<path d="M0 0 C59.73 0 119.46 0 181 0 C181 45.21 181 90.42 181 137 C121.27 137 61.54 137 0 137 C0 91.79 0 46.58 0 0 Z " fill="#010101" transform="translate(0,0)"/>
<path d="M0 0 C59.73 0 119.46 0 181 0 C181 14.19 181 28.38 181 43 C180.67 43 180.34 43 180 43 C179.88785156 42.01773438 179.88785156 42.01773438 179.7734375 41.015625 C178.23073347 30.30744407 173.8813377 20.11876555 165.58984375 12.90234375 C154.71779946 4.84838458 144.60867997 1.86214385 131.25952148 1.82299805 C129.79504326 1.81314125 129.79504326 1.81314125 128.30097961 1.80308533 C125.07435013 1.78339898 121.84776716 1.77169843 118.62109375 1.76171875 C117.51533556 1.75764322 116.40957737 1.7535677 115.27031136 1.74936867 C109.41450311 1.72852515 103.55871815 1.71421747 97.70288086 1.70483398 C91.67640703 1.69378925 85.65030441 1.65940636 79.62396145 1.61966228 C74.971434 1.59342293 70.31899392 1.58513551 65.666399 1.58155251 C63.44621341 1.57670342 61.22603128 1.56513776 59.0059185 1.54651451 C41.80454929 1.41122086 27.85556996 2.62473503 14.25 14.375 C6.7442608 23.13169573 1.86864228 31.27332928 1 43 C0.67 43 0.34 43 0 43 C0 28.81 0 14.62 0 0 Z " fill="#FAFAFA" transform="translate(0,0)"/>
<path d="M0 0 C13.86 0 27.72 0 42 0 C42 13.86 42 27.72 42 42 C41.67 42 41.34 42 41 42 C40.91363281 41.32195312 40.82726562 40.64390625 40.73828125 39.9453125 C38.78885396 27.0325923 32.97912219 17.37782322 22.72265625 9.1796875 C15.76840043 4.57437333 8.02988632 2.82010756 0 1 C0 0.67 0 0.34 0 0 Z " fill="#F0F0F0" transform="translate(139,46)"/>
<path d="M0 0 C0.33 0 0.66 0 1 0 C1 12.87 1 25.74 1 39 C-12.53 39 -26.06 39 -40 39 C-40 38.67 -40 38.34 -40 38 C-39.17757812 37.85304687 -38.35515625 37.70609375 -37.5078125 37.5546875 C-29.60313361 35.96644948 -23.55126415 33.69603891 -17 29 C-16.36449219 28.57074219 -15.72898438 28.14148438 -15.07421875 27.69921875 C-6.29983618 21.10384027 -2.15512176 10.42668431 0 0 Z " fill="#FAFAFA" transform="translate(180,98)"/>
<path d="M0 0 C1.56011325 3.1202265 2.63030711 5.84339672 3.6875 9.125 C7.63960511 19.9572297 14.01418663 27.22507178 24 33 C26.83493567 34.23545835 29.64163705 35.28175306 32.58984375 36.2109375 C35 37 35 37 39 39 C26.13 39 13.26 39 0 39 C0 26.13 0 13.26 0 0 Z " fill="#FAFAFA" transform="translate(0,98)"/>
</svg>
