<?xml version="1.0" encoding="UTF-8"?>
<svg version="1.1" xmlns="http://www.w3.org/2000/svg" width="500" height="375">
<path d="M0 0 C165 0 330 0 500 0 C500 123.75 500 247.5 500 375 C335 375 170 375 0 375 C0 251.25 0 127.5 0 0 Z " fill="#000000" transform="translate(0,0)"/>
<path d="M0 0 C0.33 0 0.66 0 1 0 C1 38.94 1 77.88 1 118 C-35.96 118 -72.92 118 -111 118 C-111 117.67 -111 117.34 -111 117 C-110.00484375 116.86464844 -109.0096875 116.72929687 -107.984375 116.58984375 C-75.49658511 111.75887232 -45.19332781 95.43850491 -25.1171875 69.13891602 C-11.93388856 51.08183852 -1.68900028 28.99450474 -0.375 6.4375 C-0.30023438 5.21933594 -0.22546875 4.00117188 -0.1484375 2.74609375 C-0.07496094 1.38677734 -0.07496094 1.38677734 0 0 Z " fill="#FCFCFC" transform="translate(499,132)"/>
<path d="M0 0 C36.96 0 73.92 0 112 0 C112 36.63 112 73.26 112 111 C111.67 111 111.34 111 111 111 C110.78085937 109.741875 110.56171875 108.48375 110.3359375 107.1875 C104.31319904 74.09331597 87.76450324 43.27241797 59.6875 23.625 C41.29853623 11.24646709 21.84525153 4.15235275 0 1 C0 0.67 0 0.34 0 0 Z " fill="#FDFDFD" transform="translate(388,0)"/>
<path d="M0 0 C36.96 0 73.92 0 112 0 C112 0.33 112 0.66 112 1 C111.00742188 1.17015625 110.01484375 1.3403125 108.9921875 1.515625 C75.78376032 7.36528101 44.77474165 23.01600374 24.75 50.875 C23.12260101 53.22258088 21.54908863 55.60014418 20 58 C19.28972656 59.09957031 18.57945313 60.19914062 17.84765625 61.33203125 C8.57313611 76.62341858 2.74494779 94.20153253 1 112 C0.67 112 0.34 112 0 112 C0 75.04 0 38.08 0 0 Z " fill="#FDFDFD" transform="translate(0,0)"/>
<path d="M0 0 C36.96 0 73.92 0 112 0 C112 0.33 112 0.66 112 1 C111.00742188 1.17015625 110.01484375 1.3403125 108.9921875 1.515625 C94.89613621 3.99864085 81.81317424 7.43214867 69 14 C68.36803711 14.32097656 67.73607422 14.64195312 67.08496094 14.97265625 C56.94039652 20.18617934 48.34316695 26.2393071 40 34 C39.11699219 34.80179688 38.23398437 35.60359375 37.32421875 36.4296875 C16.7970117 55.9033987 3.75023274 83.9476261 1 112 C0.67 112 0.34 112 0 112 C0 75.04 0 38.08 0 0 Z " fill="#FDFDFD" transform="translate(0,125)"/>
</svg>
